<svg xmlns="http://www.w3.org/2000/svg" viewBox="0 0 2600 245">
    <!--<path d="m56,237 74-228 74,228L10,96h240"/>-->
    <path d="m56,237 74,-228 74,228 -194,-141 250,0"/>
    <path d="m316,237 74,-228 74,228 -194,-141 250,0"/>
    <path d="m576,237 74,-228 74,228 -194,-141 250,0"/>
    <path d="m836,237 74,-228 74,228 -194,-141 250,0"/>
    <path d="m1096,237 74,-228 74,228 -194,-141 250,0"/>
    <path d="m1356,237 74,-228 74,228 -194,-141 250,0"/>
    <path d="m1616,237 74,-228 74,228 -194,-141 250,0"/>
    <path d="m1876,237 74,-228 74,228 -194,-141 250,0"/>
    <path d="m2136,237 74,-228 74,228 -194,-141 250,0"/>
    <path d="m2396,237 74,-228 74,228 -194,-141 250,0"/>
</svg>